<svg width="281" height="228" viewBox="0 0 281 228" fill="none" xmlns="http://www.w3.org/2000/svg">
<g filter="url(#filter0_d_6064_1246)">
<rect x="50" y="15" width="181.066" height="128.255" rx="7.54443" fill="white"/>
<rect x="50.2586" y="15.2586" width="180.549" height="127.738" rx="7.28585" stroke="#D9D9D9" stroke-width="0.517158"/>
</g>
<rect x="141" y="55" width="76" height="74" rx="4.12578" fill="#D9D9D9" fill-opacity="0.3"/>
<rect x="64" y="62" width="67.7684" height="12.7066" rx="2" fill="#F2F2F2"/>
<rect x="64" y="78.9741" width="57.6537" height="6.06881" rx="2" fill="#F2F2F2"/>
<rect x="64" y="89.0884" width="47.539" height="6.06881" rx="2" fill="#F2F2F2"/>
<rect x="64.0039" y="106" width="41.7131" height="11.507" rx="1.43838" fill="#FD801B"/>
<path d="M71.2666 111.04L69.0132 109.748C68.8912 109.677 68.7528 109.64 68.612 109.641C68.4712 109.641 68.333 109.679 68.2115 109.75C68.0899 109.821 67.9893 109.923 67.92 110.045C67.8506 110.168 67.8149 110.307 67.8165 110.447V113.041C67.8165 113.253 67.9005 113.456 68.0501 113.606C68.1997 113.755 68.4027 113.839 68.6143 113.839C68.7543 113.839 68.8919 113.802 69.0132 113.732L71.2666 112.44C71.3877 112.369 71.4882 112.269 71.5581 112.148C71.628 112.026 71.6648 111.889 71.6648 111.749C71.6648 111.609 71.628 111.472 71.5581 111.351C71.4882 111.229 71.3877 111.129 71.2666 111.059V111.04ZM71.0333 112.017L68.7799 113.328C68.7294 113.357 68.6723 113.372 68.6143 113.372C68.5562 113.372 68.4991 113.357 68.4486 113.328C68.3983 113.299 68.3564 113.257 68.3274 113.207C68.2983 113.157 68.283 113.1 68.283 113.041V110.438C68.283 110.38 68.2983 110.323 68.3274 110.272C68.3564 110.222 68.3983 110.18 68.4486 110.151C68.4993 110.123 68.5562 110.108 68.6143 110.107C68.6722 110.108 68.7291 110.123 68.7799 110.151L71.0333 111.453C71.0837 111.482 71.1255 111.524 71.1546 111.574C71.1837 111.624 71.199 111.682 71.199 111.74C71.199 111.798 71.1837 111.855 71.1546 111.905C71.1255 111.956 71.0837 111.998 71.0333 112.027V112.017Z" fill="white"/>
<g filter="url(#filter1_d_6064_1246)">
<rect x="58" y="24" width="164.633" height="19.969" rx="2.21878" fill="white"/>
<rect x="58.064" y="24.064" width="164.505" height="19.841" rx="2.15478" stroke="#B6B6B6" stroke-width="0.128006"/>
</g>
<rect x="195.988" y="29.7686" width="21.2491" height="8.68242" rx="1.57597" fill="#0A804C"/>
<rect x="63.8398" y="31.0107" width="21.0316" height="5.84211" rx="1.57597" fill="#F4F4F4"/>
<defs>
<filter id="filter0_d_6064_1246" x="0.520295" y="0.224675" width="280.026" height="227.215" filterUnits="userSpaceOnUse" color-interpolation-filters="sRGB">
<feFlood flood-opacity="0" result="BackgroundImageFix"/>
<feColorMatrix in="SourceAlpha" type="matrix" values="0 0 0 0 0 0 0 0 0 0 0 0 0 0 0 0 0 0 127 0" result="hardAlpha"/>
<feMorphology radius="3.33131" operator="erode" in="SourceAlpha" result="effect1_dropShadow_6064_1246"/>
<feOffset dy="34.7044"/>
<feGaussianBlur stdDeviation="26.4055"/>
<feComposite in2="hardAlpha" operator="out"/>
<feColorMatrix type="matrix" values="0 0 0 0 0 0 0 0 0 0 0 0 0 0 0 0 0 0 0.1 0"/>
<feBlend mode="normal" in2="BackgroundImageFix" result="effect1_dropShadow_6064_1246"/>
<feBlend mode="normal" in="SourceGraphic" in2="effect1_dropShadow_6064_1246" result="shape"/>
</filter>
<filter id="filter1_d_6064_1246" x="40.4826" y="15.915" width="199.668" height="55.004" filterUnits="userSpaceOnUse" color-interpolation-filters="sRGB">
<feFlood flood-opacity="0" result="BackgroundImageFix"/>
<feColorMatrix in="SourceAlpha" type="matrix" values="0 0 0 0 0 0 0 0 0 0 0 0 0 0 0 0 0 0 127 0" result="hardAlpha"/>
<feMorphology radius="2.69499" operator="erode" in="SourceAlpha" result="effect1_dropShadow_6064_1246"/>
<feOffset dy="9.43245"/>
<feGaussianBlur stdDeviation="10.1062"/>
<feComposite in2="hardAlpha" operator="out"/>
<feColorMatrix type="matrix" values="0 0 0 0 0 0 0 0 0 0 0 0 0 0 0 0 0 0 0.15 0"/>
<feBlend mode="normal" in2="BackgroundImageFix" result="effect1_dropShadow_6064_1246"/>
<feBlend mode="normal" in="SourceGraphic" in2="effect1_dropShadow_6064_1246" result="shape"/>
</filter>
</defs>
</svg>
